<?xml version="1.0" standalone="no"?>
<!DOCTYPE svg PUBLIC "-//W3C//DTD SVG 20010904//EN"
 "http://www.w3.org/TR/2001/REC-SVG-20010904/DTD/svg10.dtd">
<svg version="1.0" xmlns="http://www.w3.org/2000/svg"
 width="96.000000pt" height="96.000000pt" viewBox="0 0 96.000000 96.000000"
 preserveAspectRatio="xMidYMid meet">
<metadata>
Created by potrace 1.14, written by Peter Selinger 2001-2017
</metadata>
<g transform="translate(0.000000,96.000000) scale(0.100000,-0.100000)"
fill="#000000" stroke="none">
<path d="M464 887 c-3 -8 -4 -36 -2 -63 2 -36 7 -49 18 -49 20 0 22 116 3 122
-7 3 -16 -2 -19 -10z"/>
<path d="M197 763 c-13 -13 -7 -22 39 -58 52 -39 59 -41 67 -20 4 9 -11 27
-42 50 -52 38 -54 38 -64 28z"/>
<path d="M698 735 c-32 -23 -46 -40 -42 -50 4 -8 10 -15 14 -15 15 0 101 72
97 83 -6 20 -22 16 -69 -18z"/>
<path d="M413 715 c-41 -18 -47 -31 -69 -152 l-19 -103 -100 0 c-55 0 -107 -4
-115 -10 -12 -7 -14 -42 -14 -189 0 -119 4 -185 11 -192 8 -8 113 -11 345 -11
183 0 344 1 358 1 53 3 54 7 55 183 0 90 -3 175 -8 191 l-9 27 -107 0 -107 0
-17 101 c-10 56 -22 111 -28 121 -23 43 -115 60 -176 33z m130 -40 c16 -15 31
-73 43 -162 l7 -53 -112 0 c-128 0 -120 -12 -95 123 13 73 20 90 38 97 35 14
103 11 119 -5z m-294 -387 c6 -27 11 -57 11 -66 1 -16 1 -16 10 -1 10 17 12
24 25 96 5 29 13 43 27 46 22 6 23 3 48 -91 l17 -67 8 45 c12 70 30 113 48
116 21 3 22 12 -10 -104 -25 -90 -35 -111 -56 -112 -10 0 -26 43 -33 88 -13
78 -20 77 -38 -4 -14 -65 -20 -80 -36 -81 -15 -1 -22 8 -30 35 -5 20 -18 67
-28 104 -13 47 -16 69 -8 71 17 7 34 -21 45 -75z m268 -29 c1 -97 0 -105 -18
-106 -18 -2 -19 6 -19 107 0 97 2 108 18 106 15 -3 17 -16 19 -107z m129 30
l44 -74 0 71 c0 75 4 86 26 77 11 -4 14 -29 14 -108 0 -99 -1 -104 -21 -102
-14 1 -33 22 -61 69 -22 38 -43 70 -47 72 -4 3 -6 -27 -6 -65 1 -70 -7 -91
-28 -70 -13 13 -16 200 -2 205 25 8 39 -5 81 -75z"/>
<path d="M140 520 c0 -18 7 -20 59 -20 55 0 83 12 67 28 -4 3 -34 7 -66 9 -54
2 -60 0 -60 -17z"/>
<path d="M694 528 c-12 -19 11 -28 66 -28 60 0 74 7 61 28 -8 13 -119 13 -127
0z"/>
</g>
</svg>
